<svg width="24" height="30" viewBox="0 0 24 30" fill="none" xmlns="http://www.w3.org/2000/svg">
<path fill-rule="evenodd" clip-rule="evenodd" d="M0.75 2.8125V27.1875C0.75 28.7408 2.00918 30 3.5625 30H20.4375C21.9908 30 23.25 28.7408 23.25 27.1875V2.8125C23.25 1.25918 21.9908 0 20.4375 0H3.5625C2.00918 0 0.75 1.25918 0.75 2.8125ZM15.75 11.25C15.75 9.17895 14.0711 7.5 12 7.5C9.92895 7.5 8.25 9.17895 8.25 11.25C8.25 13.3211 9.92895 15 12 15C14.0711 15 15.75 13.3211 15.75 11.25ZM14.5267 15.7433L15.5852 16.0457C16.7926 16.3906 17.625 17.4942 17.625 18.75V22.9687C17.625 23.7454 16.9954 24.375 16.2188 24.375H7.78125C7.00459 24.375 6.375 23.7454 6.375 22.9687V18.75C6.375 17.4942 7.20744 16.3906 8.41488 16.0457L9.47332 15.7433C10.2204 16.1651 11.0825 16.4062 12 16.4062C12.9175 16.4062 13.7796 16.1651 14.5267 15.7433ZM20.4375 26.8359V4.6875H3.5625V26.8359C3.5625 27.0301 3.7199 27.1875 3.91406 27.1875H20.0859C20.2801 27.1875 20.4375 27.0301 20.4375 26.8359Z" fill="#5822F6"/>
</svg>
