<svg width="30" height="22" viewBox="0 0 30 22" fill="none" xmlns="http://www.w3.org/2000/svg">
<path fill-rule="evenodd" clip-rule="evenodd" d="M28.875 3.50837H26.625C26.2919 3.50837 25.9927 3.6531 25.7867 3.88295H24.6839L23.2247 2.18329L23.2172 2.17486C22.2916 1.11786 20.9541 0.511585 19.5483 0.511719H17.3663C16.5342 0.511719 15.7303 0.743023 15.037 1.1677C14.2655 0.742555 13.3908 0.511719 12.4978 0.511719H10.9927C9.63783 0.511719 8.2927 1.03702 7.28016 2.0475L5.44313 3.88295H4.21331C4.00734 3.6531 3.70814 3.50837 3.375 3.50837H1.125C0.503672 3.50837 0 4.01148 0 4.63211V15.8696C0 16.4902 0.503672 16.9933 1.125 16.9933H3.375C3.8648 16.9933 4.28128 16.6805 4.43573 16.2441H5.31703L8.84906 19.4079C10.0463 20.6464 11.658 21.4883 13.3762 21.4883C14.1445 21.4883 14.8894 21.308 15.5372 20.9765C16.7061 20.9997 17.9325 20.4911 18.7748 19.5058C19.6975 19.2446 20.5328 18.6899 21.1523 17.8857C22.1362 17.6797 23.0615 17.1135 23.6564 16.2441H25.5643C25.7187 16.6805 26.1352 16.9933 26.625 16.9933H28.875C29.4963 16.9933 30 16.4902 30 15.8696V4.63211C30 4.01148 29.4963 3.50837 28.875 3.50837ZM2.24991 15.495C1.83567 15.495 1.49991 15.1596 1.49991 14.7458C1.49991 14.3321 1.83567 13.9967 2.24991 13.9967C2.66414 13.9967 2.99991 14.3321 2.99991 14.7458C2.99991 15.1596 2.66414 15.495 2.24991 15.495ZM19.7144 15.5998C19.8581 15.7557 20.8675 15.8946 21.5871 15.2252C22.1974 14.6582 22.3141 13.5565 21.6841 12.8729L18.2885 8.38398L17.0707 9.79241C15.519 11.5365 12.7538 11.5195 11.2357 9.6997C10.1491 8.39709 10.1622 6.51763 11.2666 5.23095L13.2949 2.86687C13.0375 2.79617 12.7699 2.75918 12.498 2.75918H10.9928C10.1971 2.75919 9.43392 3.07499 8.87128 3.6371L6.81441 5.69168C6.53316 5.97262 6.15159 6.13041 5.75409 6.13041H4.50019V13.9966H5.60456C5.97417 13.9966 6.33075 14.133 6.60581 14.3796L10.4167 17.7935C11.1372 18.56 12.2069 19.2408 13.3764 19.2408C13.9474 19.2408 14.5835 19.0422 15.0002 18.626C16.0911 19.0041 17.154 18.2876 17.4138 17.4203C18.8586 17.5216 19.7807 16.2264 19.7144 15.5998ZM25.5002 13.9966H24.3537C24.3586 13.048 24.035 12.1551 23.4274 11.4495L19.7674 6.61175C19.9788 6.16647 19.8771 5.6177 19.4857 5.27964C19.0134 4.87271 18.303 4.92852 17.8985 5.39576L15.3846 8.30439C14.7364 9.02593 13.5929 9.01352 12.964 8.26085C12.5829 7.80629 12.5875 7.14298 12.9747 6.69369L15.6897 3.52941C16.1092 3.0404 16.7218 2.75902 17.3665 2.75918H19.5485C20.3036 2.75918 21.0222 3.08413 21.5205 3.65068L23.6496 6.13041H25.5002V13.9966ZM27.0002 14.7458C27.0002 15.1596 27.3359 15.495 27.7502 15.495C28.1644 15.495 28.5002 15.1596 28.5002 14.7458C28.5002 14.3321 28.1644 13.9967 27.7502 13.9967C27.3359 13.9967 27.0002 14.3321 27.0002 14.7458Z" fill="#5822F6"/>
</svg>
