<svg width="30" height="24" viewBox="0 0 30 24" fill="none" xmlns="http://www.w3.org/2000/svg">
<path fill-rule="evenodd" clip-rule="evenodd" d="M25 9.65282C25 5.2343 20.3226 0.339844 12.5001 0.339844C4.66188 0.339844 0.000271221 5.24643 0.000271221 9.65282C0.000271221 11.0807 0.421365 12.4505 1.25183 13.7243C1.54777 14.1782 1.88938 14.61 2.27444 15.0175C2.05595 15.2027 1.7611 15.4015 1.36199 15.6054C0.3335 16.1311 -0.20077 17.2927 0.0697504 18.4151C0.340219 19.5376 1.34501 20.3287 2.50022 20.3287C4.46798 20.3287 6.57871 19.7307 8.78699 18.5491C9.9824 18.8259 11.2267 18.9657 12.5001 18.9657C14.2887 18.9657 15.984 18.7093 17.539 18.2034C19.0033 17.727 20.316 17.0405 21.4407 16.163C22.5336 15.3103 23.4014 14.3178 24.02 13.2129C24.6611 12.0678 25 10.8368 25 9.65282ZM12.5001 2.83848C6.09728 2.83848 2.5002 6.63204 2.5002 9.65285C2.5002 11.6411 3.79494 13.3004 5.38514 14.4042C5.20145 15.5487 4.5002 16.808 2.5002 17.8301C4.83353 17.8301 7.09967 16.6803 8.44389 15.8701C9.77306 16.2817 11.1461 16.4672 12.5001 16.4672C18.9061 16.4672 22.5 12.6755 22.5 9.65285C22.5 6.6323 18.9033 2.83848 12.5001 2.83848ZM29.9221 21.779C29.6398 22.8857 28.6424 23.6602 27.4997 23.6602C25.8202 23.6602 24.0356 23.1402 22.182 22.1124C19.5445 22.7176 16.497 22.5224 13.9549 21.413C16.0978 21.261 18.1404 20.7707 20.0138 19.9187C20.8639 19.8552 21.7156 19.6939 22.5467 19.4194C23.6668 20.1395 25.5552 21.1616 27.4997 21.1616C25.833 20.253 25.2487 19.1337 25.0956 18.1163C26.4207 17.1352 27.4997 15.6602 27.4997 13.8929C27.4997 13.3466 27.3756 12.7719 27.133 12.2028C27.5186 10.8531 27.5838 9.59003 27.403 8.35406C29.0782 9.93968 29.9997 11.9525 29.9997 13.8929C29.9997 15.6572 29.3271 17.2789 28.178 18.636C28.3162 18.7421 28.4865 18.8534 28.6969 18.968C29.7 19.515 30.2045 20.6722 29.9221 21.779Z" fill="#5822F6"/>
</svg>
