<svg width="30" height="24" viewBox="0 0 30 24" fill="none" xmlns="http://www.w3.org/2000/svg">
<path fill-rule="evenodd" clip-rule="evenodd" d="M30 20.4375C30 21.9908 28.7408 23.25 27.1875 23.25H2.8125C1.25918 23.25 0 21.9908 0 20.4375V3.5625C0 2.00918 1.25918 0.75 2.8125 0.75H27.1875C28.7408 0.75 30 2.00918 30 3.5625V20.4375ZM17.5781 12H23.6719C24.0602 12 24.375 11.6852 24.375 11.2969V9.89062C24.375 9.50232 24.0602 9.1875 23.6719 9.1875H17.5781C17.1898 9.1875 16.875 9.50232 16.875 9.89062V11.2969C16.875 11.6852 17.1898 12 17.5781 12ZM24.375 14.5781V15.9844C24.375 16.3727 24.0602 16.6875 23.6719 16.6875H17.5781C17.1898 16.6875 16.875 16.3727 16.875 15.9844V14.5781C16.875 14.1898 17.1898 13.875 17.5781 13.875H23.6719C24.0602 13.875 24.375 14.1898 24.375 14.5781ZM27.1875 5.4375V20.0859C27.1875 20.2801 27.0301 20.4375 26.8359 20.4375H3.16406C2.9699 20.4375 2.8125 20.2801 2.8125 20.0859V5.4375H27.1875ZM10.3125 14.3438C12.1247 14.3438 13.5938 12.8747 13.5938 11.0625C13.5938 9.25031 12.1247 7.78125 10.3125 7.78125C8.50031 7.78125 7.03125 9.25031 7.03125 11.0625C7.03125 12.8747 8.50031 14.3438 10.3125 14.3438ZM13.2089 14.7439L13.9978 14.9805C14.5926 15.159 15 15.7065 15 16.3275V18.7968C15 19.1851 14.6852 19.4999 14.2969 19.4999H6.32812C5.93982 19.4999 5.625 19.1851 5.625 18.7968V16.3275C5.62499 15.7065 6.03232 15.159 6.62713 14.9805L7.41604 14.7439C8.21402 15.3731 9.21979 15.7499 10.3125 15.7499C11.4052 15.7499 12.411 15.3731 13.2089 14.7439Z" fill="#5822F6"/>
</svg>
