<svg width="22" height="30" viewBox="0 0 22 30" fill="none" xmlns="http://www.w3.org/2000/svg">
<path fill-rule="evenodd" clip-rule="evenodd" d="M0.6875 10.3125C0.6875 4.61736 5.30498 0 11 0C16.695 0 21.3125 4.61736 21.3125 10.3125C21.3125 13.7687 20.2941 15.0202 18.995 16.6168C18.0535 17.7738 16.9645 19.1121 16.0088 21.602C15.8008 22.1439 15.2781 22.5 14.6977 22.5H7.30227C6.72184 22.5 6.19918 22.1439 5.99117 21.602C5.03544 19.1121 3.94649 17.7738 3.005 16.6168C1.70585 15.0202 0.6875 13.7687 0.6875 10.3125ZM11 2.8125C15.1446 2.8125 18.5 6.16723 18.5 10.3125C18.5 12.8556 17.8148 13.6625 16.764 14.9C15.9359 15.8751 14.8809 17.1176 13.7551 19.6875H8.24492C7.11726 17.1133 6.06181 15.8734 5.23402 14.901C4.1838 13.6673 3.5 12.864 3.5 10.3125C3.5 6.16787 6.85473 2.8125 11 2.8125ZM11 6.5625C8.93223 6.5625 7.25 8.24473 7.25 10.3125C7.25 10.8302 6.83023 11.25 6.3125 11.25C5.79477 11.25 5.375 10.8302 5.375 10.3125C5.375 7.21084 7.89834 4.6875 11 4.6875C11.5178 4.6875 11.9375 5.10727 11.9375 5.625C11.9375 6.14273 11.5178 6.5625 11 6.5625ZM15.6875 26.7188V25.0781C15.6875 24.6898 15.3727 24.375 14.9844 24.375H7.01562C6.62732 24.375 6.3125 24.6898 6.3125 25.0781V26.7188C6.3125 27.331 6.70391 27.8516 7.25 28.0447V28.5938C7.25 29.3704 7.87959 30 8.65625 30H13.3438C14.1204 30 14.75 29.3704 14.75 28.5938V28.0447C15.2961 27.8516 15.6875 27.331 15.6875 26.7188Z" fill="#5822F6"/>
</svg>
