<svg width="551" height="99" viewBox="0 0 551 99" fill="none" xmlns="http://www.w3.org/2000/svg">
<path d="M25.48 27.25H10.855L8.065 34H0.595L14.635 2.5H21.835L35.92 34H28.27L25.48 27.25ZM23.185 21.715L18.19 9.655L13.195 21.715H23.185ZM53.0031 9.43C55.2531 9.43 57.2931 9.955 59.1231 11.005C60.9831 12.025 62.4381 13.48 63.4881 15.37C64.5381 17.23 65.0631 19.405 65.0631 21.895C65.0631 24.385 64.5381 26.575 63.4881 28.465C62.4381 30.325 60.9831 31.78 59.1231 32.83C57.2931 33.85 55.2531 34.36 53.0031 34.36C49.9131 34.36 47.4831 33.385 45.7131 31.435V42.73H38.6931V9.79H45.3981V12.58C47.1381 10.48 49.6731 9.43 53.0031 9.43ZM51.7881 28.6C53.5881 28.6 55.0581 28 56.1981 26.8C57.3681 25.57 57.9531 23.935 57.9531 21.895C57.9531 19.855 57.3681 18.235 56.1981 17.035C55.0581 15.805 53.5881 15.19 51.7881 15.19C49.9881 15.19 48.5031 15.805 47.3331 17.035C46.1931 18.235 45.6231 19.855 45.6231 21.895C45.6231 23.935 46.1931 25.57 47.3331 26.8C48.5031 28 49.9881 28.6 51.7881 28.6ZM76.4675 12.985C77.3075 11.815 78.4325 10.93 79.8425 10.33C81.2825 9.73 82.9325 9.43 84.7925 9.43V15.91C84.0125 15.85 83.4875 15.82 83.2175 15.82C81.2075 15.82 79.6325 16.39 78.4925 17.53C77.3525 18.64 76.7825 20.32 76.7825 22.57V34H69.7625V9.79H76.4675V12.985ZM112.462 21.985C112.462 22.075 112.417 22.705 112.327 23.875H94.0118C94.3418 25.375 95.1218 26.56 96.3518 27.43C97.5818 28.3 99.1118 28.735 100.942 28.735C102.202 28.735 103.312 28.555 104.272 28.195C105.262 27.805 106.177 27.205 107.017 26.395L110.752 30.445C108.472 33.055 105.142 34.36 100.762 34.36C98.0318 34.36 95.6168 33.835 93.5168 32.785C91.4168 31.705 89.7968 30.22 88.6568 28.33C87.5168 26.44 86.9468 24.295 86.9468 21.895C86.9468 19.525 87.5018 17.395 88.6118 15.505C89.7518 13.585 91.2968 12.1 93.2468 11.05C95.2268 9.97 97.4318 9.43 99.8618 9.43C102.232 9.43 104.377 9.94 106.297 10.96C108.217 11.98 109.717 13.45 110.797 15.37C111.907 17.26 112.462 19.465 112.462 21.985ZM99.9068 14.74C98.3168 14.74 96.9818 15.19 95.9018 16.09C94.8218 16.99 94.1618 18.22 93.9218 19.78H105.847C105.607 18.25 104.947 17.035 103.867 16.135C102.787 15.205 101.467 14.74 99.9068 14.74ZM131.851 9.43C134.851 9.43 137.266 10.33 139.096 12.13C140.956 13.93 141.886 16.6 141.886 20.14V34H134.866V21.22C134.866 19.3 134.446 17.875 133.606 16.945C132.766 15.985 131.551 15.505 129.961 15.505C128.191 15.505 126.781 16.06 125.731 17.17C124.681 18.25 124.156 19.87 124.156 22.03V34H117.136V9.79H123.841V12.625C124.771 11.605 125.926 10.825 127.306 10.285C128.686 9.715 130.201 9.43 131.851 9.43ZM173.172 0.609998V34H166.467V31.21C164.727 33.31 162.207 34.36 158.907 34.36C156.627 34.36 154.557 33.85 152.697 32.83C150.867 31.81 149.427 30.355 148.377 28.465C147.327 26.575 146.802 24.385 146.802 21.895C146.802 19.405 147.327 17.215 148.377 15.325C149.427 13.435 150.867 11.98 152.697 10.96C154.557 9.94 156.627 9.43 158.907 9.43C161.997 9.43 164.412 10.405 166.152 12.355V0.609998H173.172ZM160.122 28.6C161.892 28.6 163.362 28 164.532 26.8C165.702 25.57 166.287 23.935 166.287 21.895C166.287 19.855 165.702 18.235 164.532 17.035C163.362 15.805 161.892 15.19 160.122 15.19C158.322 15.19 156.837 15.805 155.667 17.035C154.497 18.235 153.912 19.855 153.912 21.895C153.912 23.935 154.497 25.57 155.667 26.8C156.837 28 158.322 28.6 160.122 28.6ZM203.385 21.985C203.385 22.075 203.34 22.705 203.25 23.875H184.935C185.265 25.375 186.045 26.56 187.275 27.43C188.505 28.3 190.035 28.735 191.865 28.735C193.125 28.735 194.235 28.555 195.195 28.195C196.185 27.805 197.1 27.205 197.94 26.395L201.675 30.445C199.395 33.055 196.065 34.36 191.685 34.36C188.955 34.36 186.54 33.835 184.44 32.785C182.34 31.705 180.72 30.22 179.58 28.33C178.44 26.44 177.87 24.295 177.87 21.895C177.87 19.525 178.425 17.395 179.535 15.505C180.675 13.585 182.22 12.1 184.17 11.05C186.15 9.97 188.355 9.43 190.785 9.43C193.155 9.43 195.3 9.94 197.22 10.96C199.14 11.98 200.64 13.45 201.72 15.37C202.83 17.26 203.385 19.465 203.385 21.985ZM190.83 14.74C189.24 14.74 187.905 15.19 186.825 16.09C185.745 16.99 185.085 18.22 184.845 19.78H196.77C196.53 18.25 195.87 17.035 194.79 16.135C193.71 15.205 192.39 14.74 190.83 14.74ZM245.463 0.609998V34H238.758V31.21C237.018 33.31 234.498 34.36 231.198 34.36C228.918 34.36 226.848 33.85 224.988 32.83C223.158 31.81 221.718 30.355 220.668 28.465C219.618 26.575 219.093 24.385 219.093 21.895C219.093 19.405 219.618 17.215 220.668 15.325C221.718 13.435 223.158 11.98 224.988 10.96C226.848 9.94 228.918 9.43 231.198 9.43C234.288 9.43 236.703 10.405 238.443 12.355V0.609998H245.463ZM232.413 28.6C234.183 28.6 235.653 28 236.823 26.8C237.993 25.57 238.578 23.935 238.578 21.895C238.578 19.855 237.993 18.235 236.823 17.035C235.653 15.805 234.183 15.19 232.413 15.19C230.613 15.19 229.128 15.805 227.958 17.035C226.788 18.235 226.203 19.855 226.203 21.895C226.203 23.935 226.788 25.57 227.958 26.8C229.128 28 230.613 28.6 232.413 28.6ZM275.675 21.985C275.675 22.075 275.63 22.705 275.54 23.875H257.225C257.555 25.375 258.335 26.56 259.565 27.43C260.795 28.3 262.325 28.735 264.155 28.735C265.415 28.735 266.525 28.555 267.485 28.195C268.475 27.805 269.39 27.205 270.23 26.395L273.965 30.445C271.685 33.055 268.355 34.36 263.975 34.36C261.245 34.36 258.83 33.835 256.73 32.785C254.63 31.705 253.01 30.22 251.87 28.33C250.73 26.44 250.16 24.295 250.16 21.895C250.16 19.525 250.715 17.395 251.825 15.505C252.965 13.585 254.51 12.1 256.46 11.05C258.44 9.97 260.645 9.43 263.075 9.43C265.445 9.43 267.59 9.94 269.51 10.96C271.43 11.98 272.93 13.45 274.01 15.37C275.12 17.26 275.675 19.465 275.675 21.985ZM263.12 14.74C261.53 14.74 260.195 15.19 259.115 16.09C258.035 16.99 257.375 18.22 257.135 19.78H269.06C268.82 18.25 268.16 17.035 267.08 16.135C266 15.205 264.68 14.74 263.12 14.74ZM293.093 0.609998H300.113V34H293.093V0.609998ZM316.393 9.43C320.143 9.43 323.023 10.33 325.033 12.13C327.043 13.9 328.048 16.585 328.048 20.185V34H321.478V30.985C320.158 33.235 317.698 34.36 314.098 34.36C312.238 34.36 310.618 34.045 309.238 33.415C307.888 32.785 306.853 31.915 306.133 30.805C305.413 29.695 305.053 28.435 305.053 27.025C305.053 24.775 305.893 23.005 307.573 21.715C309.283 20.425 311.908 19.78 315.448 19.78H321.028C321.028 18.25 320.563 17.08 319.633 16.27C318.703 15.43 317.308 15.01 315.448 15.01C314.158 15.01 312.883 15.22 311.623 15.64C310.393 16.03 309.343 16.57 308.473 17.26L305.953 12.355C307.273 11.425 308.848 10.705 310.678 10.195C312.538 9.685 314.443 9.43 316.393 9.43ZM315.853 29.635C317.053 29.635 318.118 29.365 319.048 28.825C319.978 28.255 320.638 27.43 321.028 26.35V23.875H316.213C313.333 23.875 311.893 24.82 311.893 26.71C311.893 27.61 312.238 28.33 312.928 28.87C313.648 29.38 314.623 29.635 315.853 29.635ZM378.15 9.43C381.18 9.43 383.58 10.33 385.35 12.13C387.15 13.9 388.05 16.57 388.05 20.14V34H381.03V21.22C381.03 19.3 380.625 17.875 379.815 16.945C379.035 15.985 377.91 15.505 376.44 15.505C374.79 15.505 373.485 16.045 372.525 17.125C371.565 18.175 371.085 19.75 371.085 21.85V34H364.065V21.22C364.065 17.41 362.535 15.505 359.475 15.505C357.855 15.505 356.565 16.045 355.605 17.125C354.645 18.175 354.165 19.75 354.165 21.85V34H347.145V9.79H353.85V12.58C354.75 11.56 355.845 10.78 357.135 10.24C358.455 9.7 359.895 9.43 361.455 9.43C363.165 9.43 364.71 9.775 366.09 10.465C367.47 11.125 368.58 12.1 369.42 13.39C370.41 12.13 371.655 11.155 373.155 10.465C374.685 9.775 376.35 9.43 378.15 9.43ZM404.108 9.43C407.858 9.43 410.738 10.33 412.748 12.13C414.758 13.9 415.763 16.585 415.763 20.185V34H409.193V30.985C407.873 33.235 405.413 34.36 401.813 34.36C399.953 34.36 398.333 34.045 396.953 33.415C395.603 32.785 394.568 31.915 393.848 30.805C393.128 29.695 392.768 28.435 392.768 27.025C392.768 24.775 393.608 23.005 395.288 21.715C396.998 20.425 399.623 19.78 403.163 19.78H408.743C408.743 18.25 408.278 17.08 407.348 16.27C406.418 15.43 405.023 15.01 403.163 15.01C401.873 15.01 400.598 15.22 399.338 15.64C398.108 16.03 397.058 16.57 396.188 17.26L393.668 12.355C394.988 11.425 396.563 10.705 398.393 10.195C400.253 9.685 402.158 9.43 404.108 9.43ZM403.568 29.635C404.768 29.635 405.833 29.365 406.763 28.825C407.693 28.255 408.353 27.43 408.743 26.35V23.875H403.928C401.048 23.875 399.608 24.82 399.608 26.71C399.608 27.61 399.953 28.33 400.643 28.87C401.363 29.38 402.338 29.635 403.568 29.635ZM436.831 9.43C439.831 9.43 442.246 10.33 444.076 12.13C445.936 13.93 446.866 16.6 446.866 20.14V34H439.846V21.22C439.846 19.3 439.426 17.875 438.586 16.945C437.746 15.985 436.531 15.505 434.941 15.505C433.171 15.505 431.761 16.06 430.711 17.17C429.661 18.25 429.136 19.87 429.136 22.03V34H422.116V9.79H428.821V12.625C429.751 11.605 430.906 10.825 432.286 10.285C433.666 9.715 435.181 9.43 436.831 9.43ZM465.013 34.36C462.463 34.36 460.168 33.835 458.128 32.785C456.118 31.705 454.543 30.22 453.403 28.33C452.263 26.44 451.693 24.295 451.693 21.895C451.693 19.495 452.263 17.35 453.403 15.46C454.543 13.57 456.118 12.1 458.128 11.05C460.168 9.97 462.463 9.43 465.013 9.43C467.563 9.43 469.843 9.97 471.853 11.05C473.863 12.1 475.438 13.57 476.578 15.46C477.718 17.35 478.288 19.495 478.288 21.895C478.288 24.295 477.718 26.44 476.578 28.33C475.438 30.22 473.863 31.705 471.853 32.785C469.843 33.835 467.563 34.36 465.013 34.36ZM465.013 28.6C466.813 28.6 468.283 28 469.423 26.8C470.593 25.57 471.178 23.935 471.178 21.895C471.178 19.855 470.593 18.235 469.423 17.035C468.283 15.805 466.813 15.19 465.013 15.19C463.213 15.19 461.728 15.805 460.558 17.035C459.388 18.235 458.803 19.855 458.803 21.895C458.803 23.935 459.388 25.57 460.558 26.8C461.728 28 463.213 28.6 465.013 28.6ZM520.384 0.609998V34H513.679V31.21C511.939 33.31 509.419 34.36 506.119 34.36C503.839 34.36 501.769 33.85 499.909 32.83C498.079 31.81 496.639 30.355 495.589 28.465C494.539 26.575 494.014 24.385 494.014 21.895C494.014 19.405 494.539 17.215 495.589 15.325C496.639 13.435 498.079 11.98 499.909 10.96C501.769 9.94 503.839 9.43 506.119 9.43C509.209 9.43 511.624 10.405 513.364 12.355V0.609998H520.384ZM507.334 28.6C509.104 28.6 510.574 28 511.744 26.8C512.914 25.57 513.499 23.935 513.499 21.895C513.499 19.855 512.914 18.235 511.744 17.035C510.574 15.805 509.104 15.19 507.334 15.19C505.534 15.19 504.049 15.805 502.879 17.035C501.709 18.235 501.124 19.855 501.124 21.895C501.124 23.935 501.709 25.57 502.879 26.8C504.049 28 505.534 28.6 507.334 28.6ZM550.597 21.985C550.597 22.075 550.552 22.705 550.462 23.875H532.147C532.477 25.375 533.257 26.56 534.487 27.43C535.717 28.3 537.247 28.735 539.077 28.735C540.337 28.735 541.447 28.555 542.407 28.195C543.397 27.805 544.312 27.205 545.152 26.395L548.887 30.445C546.607 33.055 543.277 34.36 538.897 34.36C536.167 34.36 533.752 33.835 531.652 32.785C529.552 31.705 527.932 30.22 526.792 28.33C525.652 26.44 525.082 24.295 525.082 21.895C525.082 19.525 525.637 17.395 526.747 15.505C527.887 13.585 529.432 12.1 531.382 11.05C533.362 9.97 535.567 9.43 537.997 9.43C540.367 9.43 542.512 9.94 544.432 10.96C546.352 11.98 547.852 13.45 548.932 15.37C550.042 17.26 550.597 19.465 550.597 21.985ZM538.042 14.74C536.452 14.74 535.117 15.19 534.037 16.09C532.957 16.99 532.297 18.22 532.057 19.78H543.982C543.742 18.25 543.082 17.035 542.002 16.135C540.922 15.205 539.602 14.74 538.042 14.74ZM4.24 55.61H11.26V89H4.24V55.61ZM29.2952 89.36C26.7452 89.36 24.4502 88.835 22.4102 87.785C20.4002 86.705 18.8252 85.22 17.6852 83.33C16.5452 81.44 15.9752 79.295 15.9752 76.895C15.9752 74.495 16.5452 72.35 17.6852 70.46C18.8252 68.57 20.4002 67.1 22.4102 66.05C24.4502 64.97 26.7452 64.43 29.2952 64.43C31.8452 64.43 34.1252 64.97 36.1352 66.05C38.1452 67.1 39.7202 68.57 40.8602 70.46C42.0002 72.35 42.5702 74.495 42.5702 76.895C42.5702 79.295 42.0002 81.44 40.8602 83.33C39.7202 85.22 38.1452 86.705 36.1352 87.785C34.1252 88.835 31.8452 89.36 29.2952 89.36ZM29.2952 83.6C31.0952 83.6 32.5652 83 33.7052 81.8C34.8752 80.57 35.4602 78.935 35.4602 76.895C35.4602 74.855 34.8752 73.235 33.7052 72.035C32.5652 70.805 31.0952 70.19 29.2952 70.19C27.4952 70.19 26.0102 70.805 24.8402 72.035C23.6702 73.235 23.0852 74.855 23.0852 76.895C23.0852 78.935 23.6702 80.57 24.8402 81.8C26.0102 83 27.4952 83.6 29.2952 83.6ZM55.4075 89.36C53.3975 89.36 51.4325 89.12 49.5125 88.64C47.5925 88.13 46.0625 87.5 44.9225 86.75L47.2625 81.71C48.3425 82.4 49.6475 82.97 51.1775 83.42C52.7075 83.84 54.2075 84.05 55.6775 84.05C58.6475 84.05 60.1325 83.315 60.1325 81.845C60.1325 81.155 59.7275 80.66 58.9175 80.36C58.1075 80.06 56.8625 79.805 55.1825 79.595C53.2025 79.295 51.5675 78.95 50.2775 78.56C48.9875 78.17 47.8625 77.48 46.9025 76.49C45.9725 75.5 45.5075 74.09 45.5075 72.26C45.5075 70.73 45.9425 69.38 46.8125 68.21C47.7125 67.01 49.0025 66.08 50.6825 65.42C52.3925 64.76 54.4025 64.43 56.7125 64.43C58.4225 64.43 60.1175 64.625 61.7975 65.015C63.5075 65.375 64.9175 65.885 66.0275 66.545L63.6875 71.54C61.5575 70.34 59.2325 69.74 56.7125 69.74C55.2125 69.74 54.0875 69.95 53.3375 70.37C52.5875 70.79 52.2125 71.33 52.2125 71.99C52.2125 72.74 52.6175 73.265 53.4275 73.565C54.2375 73.865 55.5275 74.15 57.2975 74.42C59.2775 74.75 60.8975 75.11 62.1575 75.5C63.4175 75.86 64.5125 76.535 65.4425 77.525C66.3725 78.515 66.8375 79.895 66.8375 81.665C66.8375 83.165 66.3875 84.5 65.4875 85.67C64.5875 86.84 63.2675 87.755 61.5275 88.415C59.8175 89.045 57.7775 89.36 55.4075 89.36ZM114.918 64.43C117.948 64.43 120.348 65.33 122.118 67.13C123.918 68.9 124.818 71.57 124.818 75.14V89H117.798V76.22C117.798 74.3 117.393 72.875 116.583 71.945C115.803 70.985 114.678 70.505 113.208 70.505C111.558 70.505 110.253 71.045 109.293 72.125C108.333 73.175 107.853 74.75 107.853 76.85V89H100.833V76.22C100.833 72.41 99.3029 70.505 96.2429 70.505C94.6229 70.505 93.3329 71.045 92.3729 72.125C91.4129 73.175 90.9329 74.75 90.9329 76.85V89H83.9129V64.79H90.6179V67.58C91.5179 66.56 92.6129 65.78 93.9029 65.24C95.2229 64.7 96.6629 64.43 98.2229 64.43C99.9329 64.43 101.478 64.775 102.858 65.465C104.238 66.125 105.348 67.1 106.188 68.39C107.178 67.13 108.423 66.155 109.923 65.465C111.453 64.775 113.118 64.43 114.918 64.43ZM155.089 76.985C155.089 77.075 155.044 77.705 154.954 78.875H136.639C136.969 80.375 137.749 81.56 138.979 82.43C140.209 83.3 141.739 83.735 143.569 83.735C144.829 83.735 145.939 83.555 146.899 83.195C147.889 82.805 148.804 82.205 149.644 81.395L153.379 85.445C151.099 88.055 147.769 89.36 143.389 89.36C140.659 89.36 138.244 88.835 136.144 87.785C134.044 86.705 132.424 85.22 131.284 83.33C130.144 81.44 129.574 79.295 129.574 76.895C129.574 74.525 130.129 72.395 131.239 70.505C132.379 68.585 133.924 67.1 135.874 66.05C137.854 64.97 140.059 64.43 142.489 64.43C144.859 64.43 147.004 64.94 148.924 65.96C150.844 66.98 152.344 68.45 153.424 70.37C154.534 72.26 155.089 74.465 155.089 76.985ZM142.534 69.74C140.944 69.74 139.609 70.19 138.529 71.09C137.449 71.99 136.789 73.22 136.549 74.78H148.474C148.234 73.25 147.574 72.035 146.494 71.135C145.414 70.205 144.094 69.74 142.534 69.74ZM157.962 98.09C155.502 98.09 153.627 97.64 152.337 96.74L154.227 91.655C155.037 92.225 156.027 92.51 157.197 92.51C158.097 92.51 158.802 92.21 159.312 91.61C159.822 91.04 160.077 90.17 160.077 89V64.79H167.097V88.955C167.097 91.775 166.287 93.995 164.667 95.615C163.077 97.265 160.842 98.09 157.962 98.09ZM163.587 61.415C162.297 61.415 161.247 61.04 160.437 60.29C159.627 59.54 159.222 58.61 159.222 57.5C159.222 56.39 159.627 55.46 160.437 54.71C161.247 53.96 162.297 53.585 163.587 53.585C164.877 53.585 165.927 53.945 166.737 54.665C167.547 55.385 167.952 56.285 167.952 57.365C167.952 58.535 167.547 59.51 166.737 60.29C165.927 61.04 164.877 61.415 163.587 61.415ZM185.081 89.36C182.531 89.36 180.236 88.835 178.196 87.785C176.186 86.705 174.611 85.22 173.471 83.33C172.331 81.44 171.761 79.295 171.761 76.895C171.761 74.495 172.331 72.35 173.471 70.46C174.611 68.57 176.186 67.1 178.196 66.05C180.236 64.97 182.531 64.43 185.081 64.43C187.631 64.43 189.911 64.97 191.921 66.05C193.931 67.1 195.506 68.57 196.646 70.46C197.786 72.35 198.356 74.495 198.356 76.895C198.356 79.295 197.786 81.44 196.646 83.33C195.506 85.22 193.931 86.705 191.921 87.785C189.911 88.835 187.631 89.36 185.081 89.36ZM185.081 83.6C186.881 83.6 188.351 83 189.491 81.8C190.661 80.57 191.246 78.935 191.246 76.895C191.246 74.855 190.661 73.235 189.491 72.035C188.351 70.805 186.881 70.19 185.081 70.19C183.281 70.19 181.796 70.805 180.626 72.035C179.456 73.235 178.871 74.855 178.871 76.895C178.871 78.935 179.456 80.57 180.626 81.8C181.796 83 183.281 83.6 185.081 83.6ZM209.754 67.985C210.594 66.815 211.719 65.93 213.129 65.33C214.569 64.73 216.219 64.43 218.079 64.43V70.91C217.299 70.85 216.774 70.82 216.504 70.82C214.494 70.82 212.919 71.39 211.779 72.53C210.639 73.64 210.069 75.32 210.069 77.57V89H203.049V64.79H209.754V67.985ZM245.748 76.985C245.748 77.075 245.703 77.705 245.613 78.875H227.298C227.628 80.375 228.408 81.56 229.638 82.43C230.868 83.3 232.398 83.735 234.228 83.735C235.488 83.735 236.598 83.555 237.558 83.195C238.548 82.805 239.463 82.205 240.303 81.395L244.038 85.445C241.758 88.055 238.428 89.36 234.048 89.36C231.318 89.36 228.903 88.835 226.803 87.785C224.703 86.705 223.083 85.22 221.943 83.33C220.803 81.44 220.233 79.295 220.233 76.895C220.233 74.525 220.788 72.395 221.898 70.505C223.038 68.585 224.583 67.1 226.533 66.05C228.513 64.97 230.718 64.43 233.148 64.43C235.518 64.43 237.663 64.94 239.583 65.96C241.503 66.98 243.003 68.45 244.083 70.37C245.193 72.26 245.748 74.465 245.748 76.985ZM233.193 69.74C231.603 69.74 230.268 70.19 229.188 71.09C228.108 71.99 227.448 73.22 227.208 74.78H239.133C238.893 73.25 238.233 72.035 237.153 71.135C236.073 70.205 234.753 69.74 233.193 69.74ZM258.567 89.36C256.557 89.36 254.592 89.12 252.672 88.64C250.752 88.13 249.222 87.5 248.082 86.75L250.422 81.71C251.502 82.4 252.807 82.97 254.337 83.42C255.867 83.84 257.367 84.05 258.837 84.05C261.807 84.05 263.292 83.315 263.292 81.845C263.292 81.155 262.887 80.66 262.077 80.36C261.267 80.06 260.022 79.805 258.342 79.595C256.362 79.295 254.727 78.95 253.437 78.56C252.147 78.17 251.022 77.48 250.062 76.49C249.132 75.5 248.667 74.09 248.667 72.26C248.667 70.73 249.102 69.38 249.972 68.21C250.872 67.01 252.162 66.08 253.842 65.42C255.552 64.76 257.562 64.43 259.872 64.43C261.582 64.43 263.277 64.625 264.957 65.015C266.667 65.375 268.077 65.885 269.187 66.545L266.847 71.54C264.717 70.34 262.392 69.74 259.872 69.74C258.372 69.74 257.247 69.95 256.497 70.37C255.747 70.79 255.372 71.33 255.372 71.99C255.372 72.74 255.777 73.265 256.587 73.565C257.397 73.865 258.687 74.15 260.457 74.42C262.437 74.75 264.057 75.11 265.317 75.5C266.577 75.86 267.672 76.535 268.602 77.525C269.532 78.515 269.997 79.895 269.997 81.665C269.997 83.165 269.547 84.5 268.647 85.67C267.747 86.84 266.427 87.755 264.687 88.415C262.977 89.045 260.937 89.36 258.567 89.36Z" fill="white"/>
</svg>
