<svg width="111" height="23" viewBox="0 0 111 23" fill="none" xmlns="http://www.w3.org/2000/svg">
<path fill-rule="evenodd" clip-rule="evenodd" d="M12.4672 16.0847C12.4672 13.3662 11.6293 12.6866 8.74714 12.654H4.99358V19.127H8.88128C11.663 19.127 12.4672 18.5768 12.4672 16.0847M8.44559 3.72179H4.99358V9.38543H8.71366C11.1936 9.38543 11.9646 8.80284 11.9646 6.50501C11.9646 4.23951 11.1267 3.72179 8.44559 3.72179M17.5951 17.0233C17.5951 21.6189 15.2825 22.8488 9.75272 22.8488C5.32845 22.8488 2.91566 22.8164 0 22.5899V0.258858C2.61367 0.0323302 4.79255 0 8.68025 0C14.7129 0 16.8578 1.22985 16.8578 5.82551C16.8578 9.02945 15.6847 10.68 12.8025 10.9389V11.0684C16.3552 11.3596 17.5951 13.4632 17.5951 17.0233" fill="#4E05B2"/>
<path fill-rule="evenodd" clip-rule="evenodd" d="M20.5579 22.849H25.6522V0.000244141H20.5579V22.849Z" fill="#4E05B2"/>
<path fill-rule="evenodd" clip-rule="evenodd" d="M47.5506 4.01307H40.6466V22.8488H35.5188V4.01307H28.615V0H47.5506V4.01307Z" fill="#4E05B2"/>
<path fill-rule="evenodd" clip-rule="evenodd" d="M55.6077 17.089C55.6077 18.2542 56.1104 18.7396 57.4175 18.7396H65.3605L65.5951 22.4938C62.5118 22.8173 59.0932 22.8496 55.8088 22.8496C52.0888 22.8496 50.5134 20.8432 50.5134 18.0923V0H55.6077V17.089Z" fill="#4E05B2"/>
<path fill-rule="evenodd" clip-rule="evenodd" d="M82.2989 12.9132C82.2989 12.9132 79.9861 4.40147 79.8857 3.72188H78.9806L76.5343 12.9132H82.2989ZM83.4049 16.7321H75.4619L73.7861 22.849H68.5579L75.2271 1.29451C75.4284 0.485604 76.1656 0 77.0037 0H81.8295C82.7009 0 83.4049 0.485604 83.6058 1.29451L90.2752 22.849H85.0805L83.4049 16.7321Z" fill="#4E05B2"/>
<path fill-rule="evenodd" clip-rule="evenodd" d="M105.705 16.0848C105.705 13.3663 104.867 12.6867 101.985 12.6541H98.2317V19.1271H102.119C104.901 19.1271 105.705 18.5768 105.705 16.0848M101.684 3.72187H98.2317V9.38551H101.952C104.432 9.38551 105.203 8.80292 105.203 6.50509C105.203 4.23959 104.365 3.72187 101.684 3.72187M110.833 17.0233C110.833 21.6189 108.521 22.8488 102.991 22.8488C98.5665 22.8488 96.1537 22.8164 93.238 22.5899V0.258858C95.8517 0.0323302 98.0306 0 101.918 0C107.951 0 110.096 1.22985 110.096 5.82551C110.096 9.02945 108.923 10.68 106.041 10.9389V11.0684C109.593 11.3596 110.833 13.4632 110.833 17.0233" fill="#4E05B2"/>
</svg>
